<svg data-v-b601a53a="" viewBox="0 0 21 21" fill="none" xmlns="http://www.w3.org/2000/svg"><path d="M16.1875 19.6875H4.8125C4.08756 19.6875 3.5 19.0999 3.5 18.375V2.625C3.5 1.90006 4.08756 1.3125 4.8125 1.3125H13.125L17.5 5.6875V18.375C17.5 19.0999 16.9124 19.6875 16.1875 19.6875Z" fill="#43A047"></path><path d="M17.5 5.6875H13.125V1.3125L17.5 5.6875Z" fill="#C8E6C9"></path><path d="M13.125 5.6875L17.5 10.0625V5.6875H13.125Z" fill="#2E7D32"></path><path d="M13.5625 10.0625H7.4375H6.5625V10.9375V11.8125V12.6875V13.5625V14.4375V15.3125V16.1875H14.4375V15.3125V14.4375V13.5625V12.6875V11.8125V10.9375V10.0625H13.5625ZM7.4375 10.9375H9.1875V11.8125H7.4375V10.9375ZM7.4375 12.6875H9.1875V13.5625H7.4375V12.6875ZM7.4375 14.4375H9.1875V15.3125H7.4375V14.4375ZM13.5625 15.3125H10.0625V14.4375H13.5625V15.3125ZM13.5625 13.5625H10.0625V12.6875H13.5625V13.5625ZM13.5625 11.8125H10.0625V10.9375H13.5625V11.8125Z" fill="#E8F5E9"></path></svg>